<svg width="30" height="31" viewBox="0 0 30 31" fill="none" xmlns="http://www.w3.org/2000/svg">
<path fill-rule="evenodd" clip-rule="evenodd" d="M19.493 9.37645C20.0225 8.84685 20.8812 8.84685 21.4108 9.37645L26.8345 14.8002L26.8353 14.8009C26.9654 14.931 27.0634 15.0808 27.1296 15.2408C27.1959 15.4007 27.2325 15.576 27.2325 15.7599C27.2325 15.943 27.1962 16.1177 27.1304 16.2771C27.0977 16.3563 27.0573 16.433 27.009 16.5061C26.9594 16.5813 26.9015 16.6526 26.8353 16.7188L26.8345 16.7196L21.4108 22.1433C20.8812 22.6729 20.0225 22.6729 19.493 22.1433C18.9634 21.6137 18.9634 20.7551 19.493 20.2254L22.6024 17.116H4.17839C3.42942 17.116 2.82227 16.5088 2.82227 15.7599C2.82227 15.0109 3.42942 14.4037 4.17839 14.4037H22.6024L19.493 11.2943C18.9634 10.7647 18.9634 9.90605 19.493 9.37645Z" fill="#000"/>
</svg>
