<svg width="40" height="40" viewBox="0 0 40 40" fill="none" xmlns="http://www.w3.org/2000/svg">
<path d="M35.4886 38.1481H4.51082C3.04416 38.1481 1.85156 36.9555 1.85156 35.4888V4.51107C1.85156 3.0444 3.04416 1.85181 4.51082 1.85181H35.496C36.9627 1.85181 38.1553 3.0444 38.1553 4.51107V35.4962C38.1479 36.9555 36.9553 38.1481 35.4886 38.1481Z" stroke="#000" stroke-width="3" stroke-miterlimit="10" stroke-linecap="round" stroke-linejoin="round"/>
<path d="M25.6837 26.7707C24.779 27.6518 23.4732 28.2024 21.7662 28.4148V30.9557H19.5006V28.4856C18.3836 28.4227 17.3137 28.226 16.3068 27.8956C15.2921 27.5652 14.4818 27.1562 13.8604 26.6685L15.1033 23.8995C15.6775 24.3242 16.3462 24.6782 17.1171 24.9614C17.888 25.2525 18.6825 25.4334 19.5006 25.5042V21.7204C18.4308 21.4608 17.5183 21.1776 16.7788 20.8551C16.0394 20.5405 15.4179 20.0763 14.9223 19.4628C14.4267 18.8492 14.175 18.0389 14.175 17.0241C14.175 15.7734 14.6313 14.6957 15.5438 13.791C16.4563 12.8942 17.7779 12.3436 19.5006 12.1469V9.62964H21.7662V12.1154C23.6227 12.2649 25.1566 12.729 26.3681 13.5L25.2353 16.2847C24.1025 15.6318 22.9461 15.2384 21.7662 15.1047V18.9593C22.8203 19.2032 23.7171 19.4785 24.4486 19.7853C25.1802 20.0921 25.7938 20.5562 26.2973 21.1698C26.7929 21.7834 27.0446 22.5857 27.0446 23.5848C27.0446 24.8277 26.5962 25.8897 25.6837 26.7707ZM18.2499 17.7872C18.533 18.0311 18.95 18.2356 19.4928 18.4008V15.1834C18.9185 15.3171 18.4937 15.5374 18.2263 15.8284C17.9588 16.1195 17.8172 16.4656 17.8172 16.8589C17.8251 17.2365 17.9667 17.5433 18.2499 17.7872ZM22.9855 24.8356C23.2608 24.5602 23.3945 24.2377 23.3945 23.8601C23.3945 23.4825 23.2529 23.1757 22.9776 22.9319C22.6944 22.688 22.2932 22.4756 21.7662 22.2947V25.4256C22.309 25.3076 22.718 25.1109 22.9855 24.8356Z" fill="#000"/>
</svg>
