<svg width="40" height="40" viewBox="0 0 40 40" fill="none" xmlns="http://www.w3.org/2000/svg">
<path d="M35.4886 38.1481H4.51082C3.04416 38.1481 1.85156 36.9555 1.85156 35.4888V4.51107C1.85156 3.0444 3.04416 1.85181 4.51082 1.85181H35.496C36.9627 1.85181 38.1553 3.0444 38.1553 4.51107V35.4962C38.1479 36.9555 36.9553 38.1481 35.4886 38.1481Z" stroke="white" stroke-width="3" stroke-miterlimit="10" stroke-linecap="round" stroke-linejoin="round"/>
<path d="M26.1129 28.748H13.5341C12.1365 28.748 11 27.6055 11 26.2004V13.5476C11 12.1425 12.1365 11 13.5341 11H26.12C27.5176 11 28.6541 12.1425 28.6541 13.5476V26.2004C28.6471 27.6055 27.5106 28.748 26.1129 28.748Z" stroke="white" stroke-width="3" stroke-miterlimit="10" stroke-linecap="round" stroke-linejoin="round"/>
</svg>
