<svg width="66" height="65" viewBox="0 0 66 65" fill="none" xmlns="http://www.w3.org/2000/svg">
<g clip-path="url(#clip0_76_488)">
<path fill-rule="evenodd" clip-rule="evenodd" d="M9.12 6.51599C7.68648 6.51599 6.5 7.68201 6.5 9.16855V24.0553C6.5 25.9883 4.933 27.5553 3 27.5553C1.067 27.5553 -0.5 25.9883 -0.5 24.0553V9.16855C-0.5 3.85108 3.78552 -0.484009 9.12 -0.484009H24.6C26.533 -0.484009 28.1 1.08299 28.1 3.01599C28.1 4.94899 26.533 6.51599 24.6 6.51599H9.12Z" fill="black"/>
<path fill-rule="evenodd" clip-rule="evenodd" d="M3 37.4447C4.933 37.4447 6.5 39.0117 6.5 40.9447V55.8315C6.5 57.318 7.68649 58.4841 9.12 58.4841H24.6C26.533 58.4841 28.1 60.0511 28.1 61.9841C28.1 63.917 26.533 65.4841 24.6 65.4841H9.12C3.78551 65.4841 -0.5 61.149 -0.5 55.8315V40.9447C-0.5 39.0117 1.067 37.4447 3 37.4447Z" fill="black"/>
<path fill-rule="evenodd" clip-rule="evenodd" d="M63.0004 37.4447C64.9334 37.4447 66.5004 39.0117 66.5004 40.9447V55.8315C66.5004 61.149 62.2149 65.4841 56.8804 65.4841H41.4004C39.4674 65.4841 37.9004 63.917 37.9004 61.9841C37.9004 60.0511 39.4674 58.4841 41.4004 58.4841H56.8804C58.3139 58.4841 59.5004 57.318 59.5004 55.8315V40.9447C59.5004 39.0117 61.0674 37.4447 63.0004 37.4447Z" fill="black"/>
<path fill-rule="evenodd" clip-rule="evenodd" d="M37.9004 3.01599C37.9004 1.08299 39.4674 -0.484009 41.4004 -0.484009H56.8804C62.2149 -0.484009 66.5004 3.85109 66.5004 9.16855V24.0553C66.5004 25.9883 64.9334 27.5553 63.0004 27.5553C61.0674 27.5553 59.5004 25.9883 59.5004 24.0553V9.16855C59.5004 7.68201 58.3139 6.51599 56.8804 6.51599H41.4004C39.4674 6.51599 37.9004 4.94899 37.9004 3.01599Z" fill="black"/>
<path d="M33.7554 47.6884H32.9514C31.5234 47.6884 30.3594 46.5182 30.3594 45.0826V20.1345C30.3594 18.6989 31.5234 17.5287 32.9514 17.5287H33.7554C35.1834 17.5287 36.3474 18.6989 36.3474 20.1345V45.0705C36.3594 46.5182 35.1954 47.6884 33.7554 47.6884Z" fill="black"/>
<path d="M48.3597 32.0898V33.1153C48.3597 34.5026 47.2437 35.6246 45.8637 35.6246H20.8437C19.4637 35.6246 18.3477 34.5026 18.3477 33.1153V32.0898C18.3477 30.7025 19.4637 29.5806 20.8437 29.5806H45.8637C47.2437 29.5926 48.3597 30.7146 48.3597 32.0898Z" fill="black"/>
</g>
<defs>
<clipPath id="clip0_76_488">
<rect width="66" height="65" fill="white"/>
</clipPath>
</defs>
</svg>
