<svg width="70" height="68" viewBox="0 0 70 68" fill="none" xmlns="http://www.w3.org/2000/svg">
<path fill-rule="evenodd" clip-rule="evenodd" d="M11.12 7.51599C9.68648 7.51599 8.5 8.68201 8.5 10.1686V25.0553C8.5 26.9883 6.933 28.5553 5 28.5553C3.067 28.5553 1.5 26.9883 1.5 25.0553V10.1686C1.5 4.85108 5.78552 0.515991 11.12 0.515991H26.6C28.533 0.515991 30.1 2.08299 30.1 4.01599C30.1 5.94899 28.533 7.51599 26.6 7.51599H11.12Z" fill="black"/>
<path fill-rule="evenodd" clip-rule="evenodd" d="M5 38.4447C6.933 38.4447 8.5 40.0117 8.5 41.9447V56.8315C8.5 58.318 9.68649 59.4841 11.12 59.4841H26.6C28.533 59.4841 30.1 61.0511 30.1 62.9841C30.1 64.917 28.533 66.4841 26.6 66.4841H11.12C5.78551 66.4841 1.5 62.149 1.5 56.8315V41.9447C1.5 40.0117 3.067 38.4447 5 38.4447Z" fill="black"/>
<path fill-rule="evenodd" clip-rule="evenodd" d="M65.0004 38.4447C66.9334 38.4447 68.5004 40.0117 68.5004 41.9447V56.8315C68.5004 62.149 64.2149 66.4841 58.8804 66.4841H43.4004C41.4674 66.4841 39.9004 64.917 39.9004 62.9841C39.9004 61.0511 41.4674 59.4841 43.4004 59.4841H58.8804C60.3139 59.4841 61.5004 58.318 61.5004 56.8315V41.9447C61.5004 40.0117 63.0674 38.4447 65.0004 38.4447Z" fill="black"/>
<path fill-rule="evenodd" clip-rule="evenodd" d="M39.9004 4.01599C39.9004 2.08299 41.4674 0.515991 43.4004 0.515991H58.8804C64.2149 0.515991 68.5004 4.85109 68.5004 10.1686V25.0553C68.5004 26.9883 66.9334 28.5553 65.0004 28.5553C63.0674 28.5553 61.5004 26.9883 61.5004 25.0553V10.1686C61.5004 8.68201 60.3139 7.51599 58.8804 7.51599H43.4004C41.4674 7.51599 39.9004 5.94899 39.9004 4.01599Z" fill="black"/>
<path fill-rule="evenodd" clip-rule="evenodd" d="M24.308 21.4081C23.6038 21.4081 23 21.9922 23 22.7391V44.2489C23 44.9957 23.6038 45.5798 24.308 45.5798H45.692C46.3917 45.5798 47.0054 44.998 47.012 44.2391V22.7391C47.012 21.9922 46.4082 21.4081 45.704 21.4081H24.308ZM17 22.7391C17 18.7086 20.2602 15.4081 24.308 15.4081H45.704C49.7518 15.4081 53.012 18.7086 53.012 22.7391V44.2489L53.012 44.264C52.9918 48.2798 49.7427 51.5798 45.692 51.5798H24.308C20.2602 51.5798 17 48.2794 17 44.2489V22.7391Z" fill="black"/>
</svg>
