<svg width="70" height="69" viewBox="0 0 70 69" fill="none" xmlns="http://www.w3.org/2000/svg">
<path fill-rule="evenodd" clip-rule="evenodd" d="M11.12 8.51599C9.68648 8.51599 8.5 9.68201 8.5 11.1686V26.0553C8.5 27.9883 6.933 29.5553 5 29.5553C3.067 29.5553 1.5 27.9883 1.5 26.0553V11.1686C1.5 5.85108 5.78552 1.51599 11.12 1.51599H26.6C28.533 1.51599 30.1 3.08299 30.1 5.01599C30.1 6.94899 28.533 8.51599 26.6 8.51599H11.12Z" fill="black"/>
<path fill-rule="evenodd" clip-rule="evenodd" d="M5 39.4447C6.933 39.4447 8.5 41.0117 8.5 42.9447V57.8315C8.5 59.318 9.68649 60.4841 11.12 60.4841H26.6C28.533 60.4841 30.1 62.0511 30.1 63.9841C30.1 65.917 28.533 67.4841 26.6 67.4841H11.12C5.78551 67.4841 1.5 63.149 1.5 57.8315V42.9447C1.5 41.0117 3.067 39.4447 5 39.4447Z" fill="black"/>
<path fill-rule="evenodd" clip-rule="evenodd" d="M65.0004 39.4447C66.9334 39.4447 68.5004 41.0117 68.5004 42.9447V57.8315C68.5004 63.149 64.2149 67.4841 58.8804 67.4841H43.4004C41.4674 67.4841 39.9004 65.917 39.9004 63.9841C39.9004 62.0511 41.4674 60.4841 43.4004 60.4841H58.8804C60.3139 60.4841 61.5004 59.318 61.5004 57.8315V42.9447C61.5004 41.0117 63.0674 39.4447 65.0004 39.4447Z" fill="black"/>
<path fill-rule="evenodd" clip-rule="evenodd" d="M39.9004 5.01599C39.9004 3.08299 41.4674 1.51599 43.4004 1.51599H58.8804C64.2149 1.51599 68.5004 5.85109 68.5004 11.1686V26.0553C68.5004 27.9883 66.9334 29.5553 65.0004 29.5553C63.0674 29.5553 61.5004 27.9883 61.5004 26.0553V11.1686C61.5004 9.68201 60.3139 8.51599 58.8804 8.51599H43.4004C41.4674 8.51599 39.9004 6.94899 39.9004 5.01599Z" fill="black"/>
<path fill-rule="evenodd" clip-rule="evenodd" d="M49.9817 23.7919C51.3984 25.1071 51.4806 27.3217 50.1654 28.7383L35.0454 45.0245C34.3832 45.7378 33.4538 46.1431 32.4804 46.1431C31.507 46.1431 30.5777 45.7378 29.9154 45.0245L19.8354 34.167C18.5202 32.7504 18.6025 30.5358 20.0191 29.2207C21.4357 27.9055 23.6502 27.9877 24.9654 29.4043L32.4804 37.499L45.0354 23.9756C46.3506 22.559 48.5651 22.4768 49.9817 23.7919Z" fill="black"/>
</svg>
