<svg width="74" height="72" viewBox="0 0 74 72" fill="none" xmlns="http://www.w3.org/2000/svg">
<path fill-rule="evenodd" clip-rule="evenodd" d="M12.12 9.51599C10.6865 9.51599 9.5 10.682 9.5 12.1686V27.0553C9.5 28.9883 7.933 30.5553 6 30.5553C4.067 30.5553 2.5 28.9883 2.5 27.0553V12.1686C2.5 6.85108 6.78552 2.51599 12.12 2.51599H27.6C29.533 2.51599 31.1 4.08299 31.1 6.01599C31.1 7.94899 29.533 9.51599 27.6 9.51599H12.12Z" fill="black"/>
<path fill-rule="evenodd" clip-rule="evenodd" d="M6 40.4447C7.933 40.4447 9.5 42.0117 9.5 43.9447V58.8315C9.5 60.318 10.6865 61.4841 12.12 61.4841H27.6C29.533 61.4841 31.1 63.0511 31.1 64.9841C31.1 66.917 29.533 68.4841 27.6 68.4841H12.12C6.78551 68.4841 2.5 64.149 2.5 58.8315V43.9447C2.5 42.0117 4.067 40.4447 6 40.4447Z" fill="black"/>
<path fill-rule="evenodd" clip-rule="evenodd" d="M66.0004 40.4447C67.9334 40.4447 69.5004 42.0117 69.5004 43.9447V58.8315C69.5004 64.149 65.2149 68.4841 59.8804 68.4841H44.4004C42.4674 68.4841 40.9004 66.917 40.9004 64.9841C40.9004 63.0511 42.4674 61.4841 44.4004 61.4841H59.8804C61.3139 61.4841 62.5004 60.318 62.5004 58.8315V43.9447C62.5004 42.0117 64.0674 40.4447 66.0004 40.4447Z" fill="black"/>
<path fill-rule="evenodd" clip-rule="evenodd" d="M40.9004 6.01599C40.9004 4.08299 42.4674 2.51599 44.4004 2.51599H59.8804C65.2149 2.51599 69.5004 6.85109 69.5004 12.1686V27.0553C69.5004 28.9883 67.9334 30.5553 66.0004 30.5553C64.0674 30.5553 62.5004 28.9883 62.5004 27.0553V12.1686C62.5004 10.682 61.3139 9.51599 59.8804 9.51599H44.4004C42.4674 9.51599 40.9004 7.94899 40.9004 6.01599Z" fill="black"/>
<path d="M22.9688 20.0342H49.0327V23.1708H22.9688V20.0342ZM33.1687 29.263H22.9688V26.1264H49.0327V29.263H38.8328V50.9538H33.1687V29.263Z" fill="black"/>
<path fill-rule="evenodd" clip-rule="evenodd" d="M22.4688 20.0342C22.4688 19.758 22.6926 19.5342 22.9688 19.5342H49.0327C49.3089 19.5342 49.5327 19.758 49.5327 20.0342V23.1708C49.5327 23.4469 49.3089 23.6708 49.0327 23.6708H22.9688C22.6926 23.6708 22.4688 23.4469 22.4688 23.1708V20.0342ZM22.9688 29.763C22.6926 29.763 22.4688 29.5392 22.4688 29.263V26.1264C22.4688 25.8503 22.6926 25.6264 22.9688 25.6264H49.0327C49.3089 25.6264 49.5327 25.8503 49.5327 26.1264V29.263C49.5327 29.5392 49.3089 29.763 49.0327 29.763H39.3328V50.9538C39.3328 51.23 39.1089 51.4538 38.8328 51.4538H33.1687C32.8926 51.4538 32.6687 51.23 32.6687 50.9538V29.763H22.9688ZM33.1687 29.263V50.9538H38.8328V29.263H49.0327V26.1264H22.9688V29.263H33.1687ZM22.9688 20.0342V23.1708H49.0327V20.0342H22.9688Z" fill="black"/>
</svg>
